<?xml version="1.0" encoding="utf-8"?>
<!-- Generator: Adobe Illustrator 19.1.0, SVG Export Plug-In . SVG Version: 6.00 Build 0)  -->
<svg version="1.1" id="Layer_1" xmlns="http://www.w3.org/2000/svg" xmlns:xlink="http://www.w3.org/1999/xlink" x="0px" y="0px"
	 viewBox="0 0 228.2 142.3" style="enable-background:new 0 0 228.2 142.3;" xml:space="preserve">
<style type="text/css">
	.st0{fill:#FFFFFF;}
</style>
<path class="st0" d="M216.2,31H12C5.4,31,0,25.6,0,19v-7C0,5.4,5.4,0,12,0h204.2c6.6,0,12,5.4,12,12v7C228.2,25.6,222.8,31,216.2,31
	z"/>
<path class="st0" d="M216.2,86.6H12c-6.6,0-12-5.4-12-12v-7c0-6.6,5.4-12,12-12h204.2c6.6,0,12,5.4,12,12v7
	C228.2,81.2,222.8,86.6,216.2,86.6z"/>
<path class="st0" d="M216.2,142.3H12c-6.6,0-12-5.4-12-12v-7c0-6.6,5.4-12,12-12h204.2c6.6,0,12,5.4,12,12v7
	C228.2,136.9,222.8,142.3,216.2,142.3z"/>
</svg>
